<svg width="27" height="23" viewBox="0 0 27 23" fill="none" xmlns="http://www.w3.org/2000/svg">
<path d="M18.5027 15.6398L19.9082 14.2344C20.1277 14.0148 20.5098 14.1685 20.5098 14.4848V20.8706C20.5098 22.0345 19.5656 22.9788 18.4017 22.9788H2.94211C1.77825 22.9788 0.833984 22.0345 0.833984 20.8706V5.41103C0.833984 4.24717 1.77825 3.3029 2.94211 3.3029H14.9541C15.2659 3.3029 15.424 3.68061 15.2044 3.9046L13.799 5.31002C13.7331 5.37589 13.6453 5.41103 13.5486 5.41103H2.94211V20.8706H18.4017V15.8858C18.4017 15.7936 18.4369 15.7057 18.5027 15.6398ZM25.3805 6.77692L13.8473 18.3101L9.87698 18.7493C8.72629 18.8767 7.74689 17.9061 7.87425 16.7466L8.31345 12.7763L19.8467 1.24308C20.8524 0.237331 22.4774 0.237331 23.4788 1.24308L25.3761 3.1404C26.3819 4.14615 26.3819 5.77556 25.3805 6.77692V6.77692ZM21.0413 8.13403L18.4896 5.58232L10.3293 13.7469L10.0087 16.6149L12.8767 16.2942L21.0413 8.13403ZM23.8872 4.63366L21.9899 2.73634C21.8099 2.55627 21.5156 2.55627 21.3399 2.73634L19.9828 4.09345L22.5345 6.64516L23.8916 5.28806C24.0673 5.10359 24.0673 4.81373 23.8872 4.63366V4.63366Z" fill="#383131"/>
</svg>
