<svg width="26" height="23" viewBox="0 0 26 23" fill="none" xmlns="http://www.w3.org/2000/svg">
<path d="M22.4033 0H2.66333C1.19443 0 0 1.12424 0 2.50667V20.0533C0 21.4358 1.19443 22.56 2.66333 22.56H22.4033C23.8722 22.56 25.0667 21.4358 25.0667 20.0533V2.50667C25.0667 1.12424 23.8722 0 22.4033 0ZM22.4033 20.0533H2.66333C2.59189 20.0533 2.54301 20.0333 2.52171 20.0333C2.51293 20.0333 2.50792 20.0358 2.50667 20.0433L2.49163 2.56432C2.5004 2.55179 2.5568 2.50667 2.66333 2.50667H22.4033C22.5023 2.50792 22.5562 2.54176 22.56 2.51669L22.575 19.9957C22.5663 20.0082 22.5099 20.0533 22.4033 20.0533Z" fill="black"/>
<path d="M5.01172 5.01367H12.5317V12.5337H5.01172V5.01367ZM13.7851 15.0403H5.01172V17.547H13.7851H15.0384H20.0517V15.0403H15.0384H13.7851ZM15.0384 10.027H20.0517V12.5337H15.0384V10.027ZM15.0384 5.01367H20.0517V7.52034H15.0384V5.01367Z" fill="black"/>
</svg>
