<svg width="49" height="49" viewBox="0 0 49 49" fill="none" xmlns="http://www.w3.org/2000/svg">
<path d="M47.3129 40.9307C48.9712 42.589 48.9712 45.1687 47.3129 46.827C46.4837 47.6562 45.4703 48.0247 44.3647 48.0247C43.2591 48.0247 42.2457 47.6562 41.4165 46.827L24.5566 29.9672L7.69676 46.827C6.86758 47.6562 5.85415 48.0247 4.74858 48.0247C3.64301 48.0247 2.62958 47.6562 1.8004 46.827C0.142053 45.1687 0.142053 42.589 1.8004 40.9307L18.6603 24.0708L1.8004 7.21092C0.142053 5.55257 0.142053 2.97291 1.8004 1.31456C3.45875 -0.343787 6.03841 -0.343787 7.69676 1.31456L24.5566 18.1744L41.4165 1.31456C43.0749 -0.343787 45.6545 -0.343787 47.3129 1.31456C48.9712 2.97291 48.9712 5.55257 47.3129 7.21092L30.453 24.0708L47.3129 40.9307Z" fill="black"/>
</svg>
