<svg width="41" height="40" viewBox="0 0 41 40" fill="none" xmlns="http://www.w3.org/2000/svg">
<path d="M28.4489 0H12.377C5.55376 0 0 5.42222 0 12.0889V27.9111C0 34.5778 5.55376 40 12.377 40H28.4262C35.272 40 40.8031 34.5778 40.8031 27.9111V12.0889C40.8258 5.42222 35.272 0 28.4489 0V0ZM37.4029 28.8889C37.4029 33.1778 33.8439 36.6667 29.4689 36.6667H11.3342C6.9592 36.6667 3.40026 33.1778 3.40026 28.8889V11.1111C3.40026 6.82222 6.9592 3.33333 11.3342 3.33333H29.4689C33.8439 3.33333 37.4029 6.82222 37.4029 11.1111V28.8889Z" fill="black"/>
<path d="M31.4416 11.8889C32.8062 11.8889 33.9124 10.8044 33.9124 9.46666C33.9124 8.1289 32.8062 7.04443 31.4416 7.04443C30.0769 7.04443 28.9707 8.1289 28.9707 9.46666C28.9707 10.8044 30.0769 11.8889 31.4416 11.8889Z" fill="black"/>
<path d="M20.4711 9.88965C14.6906 9.88965 9.97559 14.4674 9.97559 20.1119C9.97559 25.7785 14.6679 30.3563 20.4711 30.3563C26.2742 30.3563 30.9665 25.7763 30.9665 20.1119C30.9439 14.4674 26.2515 9.88965 20.4711 9.88965V9.88965ZM20.5844 26.6674C16.8214 26.6674 13.7839 23.6896 13.7839 20.023C13.7839 16.3563 16.8214 13.3785 20.5844 13.3785C24.3474 13.3785 27.3849 16.3563 27.3849 20.023C27.3849 23.6896 24.3474 26.6674 20.5844 26.6674Z" fill="black"/>
</svg>
