<svg width="23" height="23" viewBox="0 0 23 23" fill="none" xmlns="http://www.w3.org/2000/svg">
<path d="M11.5259 0.420898C9.32954 0.420898 7.1825 1.0722 5.35629 2.29243C3.53009 3.51266 2.10673 5.24702 1.26622 7.2762C0.42571 9.30537 0.205794 11.5382 0.634283 13.6924C1.06277 15.8465 2.12042 17.8253 3.67348 19.3783C5.22654 20.9314 7.20527 21.989 9.35942 22.4175C11.5136 22.846 13.7464 22.6261 15.7756 21.7856C17.8048 20.9451 19.5391 19.5217 20.7594 17.6955C21.9796 15.8693 22.6309 13.7223 22.6309 11.5259C22.6309 10.0676 22.3437 8.62352 21.7856 7.2762C21.2275 5.92888 20.4095 4.70467 19.3783 3.67348C18.3471 2.64228 17.1229 1.82429 15.7756 1.26622C14.4283 0.708138 12.9842 0.420898 11.5259 0.420898V0.420898ZM11.5259 20.4099C9.76881 20.4099 8.05118 19.8889 6.59022 18.9127C5.12925 17.9365 3.99057 16.549 3.31816 14.9257C2.64575 13.3023 2.46982 11.516 2.81261 9.79271C3.1554 8.06939 4.00152 6.48641 5.24397 5.24396C6.48641 4.00151 8.06939 3.15539 9.79272 2.8126C11.516 2.46981 13.3023 2.64574 14.9257 3.31815C16.549 3.99056 17.9365 5.12924 18.9127 6.59021C19.8889 8.05118 20.4099 9.76881 20.4099 11.5259C20.4099 13.8821 19.4739 16.1418 17.8078 17.8078C16.1418 19.4739 13.8821 20.4099 11.5259 20.4099V20.4099Z" fill="black"/>
<path d="M15.9695 10.4151H12.638V7.08364C12.638 6.78912 12.521 6.50666 12.3127 6.2984C12.1045 6.09014 11.822 5.97314 11.5275 5.97314C11.233 5.97314 10.9505 6.09014 10.7423 6.2984C10.534 6.50666 10.417 6.78912 10.417 7.08364V11.5256C10.417 11.8202 10.534 12.1026 10.7423 12.3109C10.9505 12.5191 11.233 12.6361 11.5275 12.6361H15.9695C16.264 12.6361 16.5465 12.5191 16.7547 12.3109C16.963 12.1026 17.08 11.8202 17.08 11.5256C17.08 11.2311 16.963 10.9487 16.7547 10.7404C16.5465 10.5321 16.264 10.4151 15.9695 10.4151Z" fill="black"/>
</svg>
